{
  "accessors": [
    {
      "bufferView": 2,
      "componentType": 5126,
      "count": 1255,
      "max": [
        39.196430206298828,
        42.695541381835938,
        45.876323699951172
      ],
      "min": [
        -41.843521118164062,
        -41.843521118164062,
        -46.163570404052734
      ],
      "type": "VEC3"
    },
    {
      "bufferView": 2,
      "byteOffset": 15060,
      "componentType": 5126,
      "count": 1255,
      "max": [
        1,
        1,
        1
      ],
      "min": [
        -1,
        -1,
        -1
      ],
      "type": "VEC3"
    },
    {
      "bufferView": 3,
      "componentType": 5126,
      "count": 1255,
      "max": [
        1,
        1,
        1,
        1
      ],
      "min": [
        -1,
        -1,
        -1,
        1
      ],
      "type": "VEC4"
    },
    {
      "bufferView": 1,
      "componentType": 5126,
      "count": 1255,
      "max": [
        0.99949997663497925,
        0.98737776279449463
      ],
      "min": [
        0.00050000002374872565,
        0.00050000002374872565
      ],
      "type": "VEC2"
    },
    {
      "bufferView": 0,
      "componentType": 5125,
      "count": 4032,
      "max": [
        1254
      ],
      "min": [
        0
      ],
      "type": "SCALAR"
    }
  ],
  "asset": {
    "generator": "Sketchfab (OSG glTF plugin)",
    "version": "2.0"
  },
  "bufferViews": [
    {
      "buffer": 0,
      "byteLength": 16128,
      "byteOffset": 0,
      "name": "floatBufferViews",
      "target": 34963
    },
    {
      "buffer": 0,
      "byteLength": 10040,
      "byteOffset": 16128,
      "byteStride": 8,
      "name": "floatBufferViews",
      "target": 34962
    },
    {
      "buffer": 0,
      "byteLength": 30120,
      "byteOffset": 26168,
      "byteStride": 12,
      "name": "floatBufferViews",
      "target": 34962
    },
    {
      "buffer": 0,
      "byteLength": 20080,
      "byteOffset": 56288,
      "byteStride": 16,
      "name": "floatBufferViews",
      "target": 34962
    }
  ],
  "buffers": [
    {
      "byteLength": 76368,
      "uri": "scene.bin"
    }
  ],
  "images": [
    {
      "uri": "Scene%20-%20Root_emissive.png"
    },
    {
      "uri": "Scene%20-%20Root_metallicRoughness.png"
    },
    {
      "uri": "Scene%20-%20Root_normal.png"
    },
    {
      "uri": "Scene%20-%20Root_baseColor.png"
    }
  ],
  "materials": [
    {
      "doubleSided": true,
      "emissiveFactor": [
        1,
        1,
        1
      ],
      "emissiveTexture": {
        "index": 0,
        "texCoord": 0
      },
      "name": "Scene - Root",
      "normalTexture": {
        "index": 2,
        "scale": 1,
        "texCoord": 0
      },
      "occlusionTexture": {
        "index": 1,
        "strength": 1,
        "texCoord": 0
      },
      "pbrMetallicRoughness": {
        "baseColorFactor": [
          1,
          1,
          1,
          1
        ],
        "baseColorTexture": {
          "index": 3,
          "texCoord": 0
        },
        "metallicFactor": 0,
        "metallicRoughnessTexture": {
          "index": 1,
          "texCoord": 0
        },
        "roughnessFactor": 1
      }
    }
  ],
  "meshes": [
    {
      "name": "Sphere001__0",
      "primitives": [
        {
          "attributes": {
            "NORMAL": 1,
            "POSITION": 0,
            "TANGENT": 2,
            "TEXCOORD_0": 3
          },
          "indices": 4,
          "material": 0,
          "mode": 4
        }
      ]
    }
  ],
  "nodes": [
    {
      "children": [
        1
      ],
      "name": "RootNode (gltf orientation matrix)",
      "rotation": [
        -0.70710678118654746,
        -0,
        -0,
        0.70710678118654757
      ]
    },
    {
      "children": [
        2
      ],
      "name": "RootNode (model correction matrix)"
    },
    {
      "children": [
        3
      ],
      "matrix": [
        1,
        0,
        0,
        0,
        0,
        0,
        1,
        0,
        0,
        -1,
        0,
        0,
        0,
        0,
        0,
        1
      ],
      "name": "f770c750705c442f874ffb5a61fc7a49.fbx"
    },
    {
      "children": [
        4
      ],
      "name": "RootNode"
    },
    {
      "children": [
        6
      ],
      "matrix": [
        1,
        0,
        0,
        0,
        0,
        0.999999999999999,
        4.3711388286737922e-08,
        0,
        0,
        -4.3711388286737922e-08,
        0.999999999999999,
        0,
        2.5166184902191162,
        0,
        -18.673173904418945,
        1
      ],
      "name": "Sphere001"
    },
    {
      "mesh": 0,
      "name": "Sphere001__0"
    },
    {
      "children": [
        5
      ],
      "name": "Geode"
    }
  ],
  "samplers": [
    {
      "magFilter": 9729,
      "minFilter": 9987,
      "wrapS": 10497,
      "wrapT": 10497
    }
  ],
  "scene": 0,
  "scenes": [
    {
      "name": "OSG_Scene",
      "nodes": [
        0
      ]
    }
  ],
  "textures": [
    {
      "sampler": 0,
      "source": 0
    },
    {
      "sampler": 0,
      "source": 1
    },
    {
      "sampler": 0,
      "source": 2
    },
    {
      "sampler": 0,
      "source": 3
    }
  ]
}

